# xmcd
#
# Track frame offsets: 
#        150
#        15731
#        37636
#        57539
#        76510
#        98128
#        116342
#        136448
#        167613
#        183982
#        200441
#        223292
#        248647
#        284077
#
# Disc length: 3995 seconds
#
# Revision: 1
# Processed by: cddbd v1.5.2PL0 Copyright (c) Steve Scherf et al.
# Submitted via: ExactAudioCopy v1.3
#
DISCID=bd0f990e
DTITLE=Robbert Fossen Band - Get Off On It
DYEAR=2018
DGENRE=Electric Blues
TTITLE0=Don't Ever Let Nobody Drag Your Spirit Down
TTITLE1=All Those Evil Words
TTITLE2=Katrina
TTITLE3=Woman Across The River
TTITLE4=Did Somebody Make A Fool Outta You
TTITLE5=All That Bluesmen
TTITLE6=I Feel So Bad
TTITLE7=Make It Rain
TTITLE8=Still Called The Blues
TTITLE9=I Believe To My Soul
TTITLE10=Can't No Grave Hold My Body Down
TTITLE11=Get Off On It
TTITLE12=Midlife
TTITLE13=Thirty Years
EXTD=
EXTT0=
EXTT1=
EXTT2=
EXTT3=
EXTT4=
EXTT5=
EXTT6=
EXTT7=
EXTT8=
EXTT9=
EXTT10=
EXTT11=
EXTT12=
EXTT13=
PLAYORDER=
